<svg version="1.1"
      xmlns="http://www.w3.org/2000/svg"
      xmlns:xlink="http://www.w3.org/1999/xlink"  id="snapshot-27205" width="250" height="250" viewBox="0 0 250 250"><desc>This image was made on Patterninja.com</desc><defs>
<!-- image 02125 -->
<g id="transformed-02125" data-image="02125" transform="translate(-102, -125) rotate(0, 102, 125)"><g><svg version="1.1" width="204px" height="250px" viewBox="0 0 204 250"><g id="original-02125"><svg xmlns="http://www.w3.org/2000/svg" viewBox="0 0 94 115" xmlns:xlink="http://www.w3.org/1999/xlink" version="1.1" preserveAspectRatio="xMidYMid meet">
  <defs>
    <path id="a" d="M.32 28.704h93.333V.287H.32z" fill="rgba(0, 0, 0, 1)" stroke="none"/>
    <path id="c" d="M.769 27.673h51.258V.708H.769z" fill="rgba(0, 0, 0, 1)" stroke="none"/>
    <path id="e" d="M.359 23.003h81.648V1.253H.359z" fill="rgba(0, 0, 0, 1)" stroke="none"/>
    <path id="g" d="M1.057 23.429h77.586V.301H1.057z" fill="rgba(0, 0, 0, 1)" stroke="none"/>
    <path id="i" d="M1.125 16.161h20.607V1.199H1.125z" fill="rgba(0, 0, 0, 1)" stroke="none"/>
    <path id="k" d="M.637 16.161h20.604V1.197H.637z" fill="rgba(0, 0, 0, 1)" stroke="none"/>
    <path id="m" d="M.971 19.721h14.505V.552H.971z" fill="rgba(0, 0, 0, 1)" stroke="none"/>
    <path id="o" d="M.225 19.723h14.506V.552H.225z" fill="rgba(0, 0, 0, 1)" stroke="none"/>
    <path id="q" d="M.52 5.643h19.755V.401H.52z" fill="rgba(0, 0, 0, 1)" stroke="none"/>
    <path id="s" d="M.52 5.651h19.755V.409H.52z" fill="rgba(0, 0, 0, 1)" stroke="none"/>
  </defs>
  <g transform="matrix(1 0 0 -1 .333 115)">
    <mask id="b" fill="#fff" fill-rule="evenodd">
      <use xlink:href="#a"/>
    </mask>
    <path d="M93.654 14.495C93.654 6.647 72.76.287 46.987.287 21.214.287.32 6.647.32 14.495c0 7.85 20.894 14.21 46.667 14.21 25.773 0 46.667-6.36 46.667-14.21" mask="url(#b)" fill="rgba(88, 89, 91, 0.2)" stroke="none" fill-rule="evenodd"/>
  </g>
  <path fill-rule="evenodd" d="M72.36 26.06c0 14.159-11.474 25.633-25.629 25.633-14.154 0-25.628-11.474-25.628-25.633C21.103 11.907 32.577.432 46.731.432 60.886.432 72.36 11.907 72.36 26.06" fill="rgba(107, 155, 210, 1)" stroke="none"/>
  <g transform="matrix(1 0 0 -1 20.333 52.333)">
    <mask id="d" fill="#fff" fill-rule="evenodd">
      <use xlink:href="#c"/>
    </mask>
    <path d="M26.398 3.375c-13.704 0-24.862 10.764-25.56 24.299-.024-.444-.069-.883-.069-1.334C.77 12.182 12.244.708 26.4.708c14.153 0 25.627 11.474 25.627 25.632 0 .45-.045.89-.068 1.334-.698-13.535-11.857-24.3-25.56-24.3" mask="url(#d)" fill="rgba(63, 103, 166, 0.5)" stroke="none" fill-rule="evenodd"/>
  </g>
  <path fill-rule="evenodd" d="M86.512 44.5c-2.656-5.13-8.972-7.133-14.102-4.475l-18.042 9.439a8.93 8.93 0 0 0-15.034.001l-18.044-9.44c-5.132-2.658-11.445-.654-14.1 4.475-2.659 5.13-.657 11.443 4.473 14.101l19.062 9.971c5.129 2.656 11.442.653 14.1-4.479.17-.328.321-.662.453-1a8.89 8.89 0 0 0 1.575.147c.534 0 1.058-.055 1.57-.145.134.336.283.67.452.998 2.659 5.132 8.971 7.135 14.1 4.479l19.063-9.97c5.13-2.66 7.13-8.971 4.475-14.102" fill="rgba(107, 155, 210, 1)" stroke="none"/>
  <g transform="matrix(1 0 0 -1 5.667 71)">
    <mask id="f" fill="#fff" fill-rule="evenodd">
      <use xlink:href="#e"/>
    </mask>
    <path d="M76.37 15.065l-19.063-9.97c-5.13-2.657-11.441-.654-14.099 4.478-.17.328-.318.663-.453.999a8.984 8.984 0 0 0-1.57-.146 8.86 8.86 0 0 0-1.574.147 10.622 10.622 0 0 0-.453-1c-2.658-5.132-8.972-7.135-14.1-4.479L5.996 15.065A10.44 10.44 0 0 0 .442 23c-.536-4.227 1.55-8.526 5.554-10.602l19.062-9.97c5.128-2.656 11.442-.654 14.1 4.478.17.328.32.663.453 1a8.99 8.99 0 0 1 1.573-.146c.536 0 1.06.056 1.571.145.135-.336.283-.67.453-.999 2.658-5.132 8.97-7.134 14.1-4.478l19.062 9.97c4.004 2.076 6.09 6.376 5.554 10.604a10.443 10.443 0 0 0-5.554-7.937" mask="url(#f)" fill="rgba(63, 103, 166, 0.5)" stroke="none" fill-rule="evenodd"/>
  </g>
  <path fill-rule="evenodd" d="M82.816 88.324L57.04 59.6c-2.661-2.95-6.553-4.11-10.189-3.43-3.637-.68-7.528.48-10.19 3.43L10.883 88.324c-4.07 4.51-3.716 11.467.795 15.539 4.51 4.072 11.468 3.716 15.539-.793 0 0 13.538-16.832 19.633-16.832 6.095 0 19.633 16.832 19.633 16.832 4.071 4.509 11.027 4.865 15.536.793 4.512-4.072 4.867-11.03.796-15.539" fill="rgba(107, 155, 210, 1)" stroke="none"/>
  <g transform="matrix(1 0 0 -1 7 107)">
    <mask id="h" fill="#fff" fill-rule="evenodd">
      <use xlink:href="#g"/>
    </mask>
    <path d="M75.02 5.803c-4.51-4.072-11.466-3.716-15.535.795 0 0-13.54 16.832-19.634 16.832-6.094 0-19.634-16.832-19.634-16.832-4.07-4.51-11.027-4.867-15.538-.795a10.944 10.944 0 0 0-3.54 6.847c-.42-3.436.775-7.016 3.54-9.513C9.19-.935 16.147-.58 20.217 3.93c0 0 13.54 16.832 19.634 16.832 6.094 0 19.634-16.832 19.634-16.832 4.07-4.51 11.025-4.866 15.536-.794 2.765 2.497 3.961 6.077 3.54 9.513a10.944 10.944 0 0 0-3.54-6.847" mask="url(#h)" fill="rgba(63, 103, 166, 0.5)" stroke="none" fill-rule="evenodd"/>
  </g>
  <g transform="matrix(1 0 0 -1 11 100.333)">
    <mask id="j" fill="#fff" fill-rule="evenodd">
      <use xlink:href="#i"/>
    </mask>
    <path d="M19.57 1.2c.655.737 1.386 1.54 2.162 2.373-5.134 9.22-13.138 11.872-18.12 12.589l-2.487-2.77C4.945 13.264 14.2 11.802 19.57 1.2" mask="url(#j)" fill="rgba(63, 103, 166, 0.6)" stroke="none" fill-rule="evenodd"/>
  </g>
  <g transform="matrix(1 0 0 -1 60.333 100.333)">
    <mask id="l" fill="#fff" fill-rule="evenodd">
      <use xlink:href="#k"/>
    </mask>
    <path d="M2.798 1.198c5.37 10.6 14.621 12.068 18.443 12.196l-2.484 2.768c-4.983-.717-12.986-3.37-18.12-12.59.774-.831 1.506-1.635 2.161-2.374" mask="url(#l)" fill="rgba(63, 103, 166, 0.6)" stroke="none" fill-rule="evenodd"/>
  </g>
  <g transform="matrix(1 0 0 -1 12.333 61.667)">
    <mask id="n" fill="#fff" fill-rule="evenodd">
      <use xlink:href="#m"/>
    </mask>
    <path d="M12.629 19.721C12.354 15.647 10.559 7.316.97 2.207L4.137.552c8.367 5.257 10.721 12.96 11.34 17.68l-2.848 1.49z" mask="url(#n)" fill="rgba(63, 103, 166, 0.6)" stroke="none" fill-rule="evenodd"/>
  </g>
  <g transform="matrix(1 0 0 -1 65.667 61.667)">
    <mask id="p" fill="#fff" fill-rule="evenodd">
      <use xlink:href="#o"/>
    </mask>
    <path d="M3.073 19.723l-2.848-1.49C.842 13.513 3.195 5.811 11.562.552l3.168 1.656C5.142 7.318 3.346 15.648 3.073 19.723" mask="url(#p)" fill="rgba(63, 103, 166, 0.6)" stroke="none" fill-rule="evenodd"/>
  </g>
  <path fill-rule="evenodd" d="M39.182 25.406a3.03 3.03 0 0 1-6.057 0 3.027 3.027 0 0 1 3.03-3.028 3.028 3.028 0 0 1 3.027 3.028" fill="rgba(244, 244, 245, 1)" stroke="none"/>
  <path fill-rule="evenodd" d="M59.384 25.406a3.03 3.03 0 0 1-6.057 0 3.028 3.028 0 1 1 6.057 0" fill="rgba(244, 244, 245, 1)" stroke="none"/>
  <path fill-rule="evenodd" d="M54.332 44.911c-1.403 0-3.777 1.347-5.184 2.86a3.245 3.245 0 0 0-2.417-1.084 3.25 3.25 0 0 0-2.419 1.084c-1.407-1.513-3.783-2.86-5.183-2.86-2.081 0-2.492 2.967-2.492 5.047 0 2.081.411 5.047 2.492 5.047 1.4 0 3.776-1.346 5.183-2.856a3.254 3.254 0 0 0 2.419 1.085 3.25 3.25 0 0 0 2.417-1.085c1.407 1.51 3.781 2.856 5.184 2.856 2.083 0 2.49-2.966 2.49-5.047 0-2.08-.407-5.047-2.49-5.047" fill="rgba(245, 140, 142, 1)" stroke="none"/>
  <g transform="matrix(1 0 0 -1 36.333 51)">
    <mask id="r" fill="#fff" fill-rule="evenodd">
      <use xlink:href="#q"/>
    </mask>
    <path d="M2.958 4.464c1.368 0 3.695-1.24 5.072-2.634.587.61 1.426 1 2.367 1 .941 0 1.78-.39 2.367-1 1.377 1.394 3.702 2.634 5.07 2.634 1.84 0 2.34-2.216 2.423-4.063.01.201.017.401.017.59 0 1.92-.4 4.653-2.44 4.653-1.368 0-3.693-1.24-5.07-2.636-.587.612-1.426 1-2.367 1-.941 0-1.78-.388-2.367-1-1.377 1.396-3.704 2.636-5.072 2.636C.921 5.644.52 2.912.52.992.52.802.528.602.538.4c.08 1.847.582 4.063 2.42 4.063" mask="url(#r)" fill="rgba(245, 140, 142, 0.4)" stroke="none" fill-rule="evenodd"/>
  </g>
  <g transform="matrix(1 0 0 -1 36.333 55)">
    <mask id="t" fill="#fff" fill-rule="evenodd">
      <use xlink:href="#s"/>
    </mask>
    <path d="M2.958 1.586c1.368 0 3.695 1.243 5.072 2.636.587-.61 1.426-1 2.367-1 .941 0 1.78.39 2.367 1 1.377-1.393 3.702-2.636 5.07-2.636 1.84 0 2.34 2.221 2.423 4.065.01-.201.017-.404.017-.592 0-1.916-.4-4.65-2.44-4.65-1.368 0-3.693 1.242-5.07 2.636a3.265 3.265 0 0 0-2.367-1c-.941 0-1.78.388-2.367 1C6.653 1.65 4.326.409 2.958.409.921.409.52 3.143.52 5.059c0 .188.008.391.018.592.08-1.844.582-4.065 2.42-4.065" mask="url(#t)" fill="rgba(245, 140, 142, 0.5)" stroke="none" fill-rule="evenodd"/>
  </g>
  <path fill-rule="evenodd" d="M49.51 61.018a2.752 2.752 0 1 1-5.503 0 2.752 2.752 0 0 1 5.503 0" fill="rgba(244, 244, 245, 1)" stroke="none"/>
  <path fill-rule="evenodd" d="M49.51 71.12a2.75 2.75 0 0 1-2.752 2.75 2.751 2.751 0 1 1 2.752-2.75" fill="rgba(244, 244, 245, 1)" stroke="none"/>
  <path fill-rule="evenodd" d="M46.73 38.365c-4.315 0-7.455-3.086-7.586-3.218a1.516 1.516 0 0 1 2.14-2.146c.056.054 2.428 2.336 5.447 2.336 3.038 0 5.424-2.315 5.448-2.336a1.516 1.516 0 0 1 2.14.009 1.51 1.51 0 0 1-.003 2.137c-.13.132-3.27 3.218-7.585 3.218" fill="rgba(244, 244, 245, 1)" stroke="none"/>
</svg>
</g></svg></g></g>
<!-- /image 02125 -->
</defs><rect x="0" y="0" width="250" height="250" fill="rgba(37, 26, 85, 0.8953488372093024)"></rect><use xlink:href="#transformed-02125" transform="translate(-250, -250)"></use><use xlink:href="#transformed-02125" transform="translate(0, -250)"></use><use xlink:href="#transformed-02125" transform="translate(250, -250)"></use><use xlink:href="#transformed-02125" transform="translate(-250, 0)"></use><use xlink:href="#transformed-02125" transform="translate(0, 0)"></use><use xlink:href="#transformed-02125" transform="translate(250, 0)"></use><use xlink:href="#transformed-02125" transform="translate(-250, 250)"></use><use xlink:href="#transformed-02125" transform="translate(0, 250)"></use><use xlink:href="#transformed-02125" transform="translate(250, 250)"></use></svg>